<?xml version='1.0' encoding='utf-8'?><!-- Generator: DarwingMaster 1.1.7, SVG Export Plug-In . SVG Version: 6.00 Build 0)--><svg version="1.1" x="0" y="0" viewBox="0 0 1119.60911 699" xmlns="http://www.w3.org/2000/svg" xmlns:xlink="http://www.w3.org/1999/xlink">
  <style type="text/css">.st2{stroke:none;stroke-width:1;stroke-linecap:butt;stroke-linejoin:miter;fill:#f2f2f2;fill-opacity:1;fill-rule:nonZero;}
.st3{stroke:none;stroke-width:1;stroke-linecap:butt;stroke-linejoin:miter;fill:#2f2e41;fill-opacity:1;fill-rule:nonZero;}
.st4{stroke:none;stroke-width:1;stroke-linecap:butt;stroke-linejoin:miter;fill:#42b983;fill-opacity:1;fill-rule:nonZero;}
.st5{stroke:none;stroke-width:1;stroke-linecap:butt;stroke-linejoin:miter;fill:#42b983;fill-opacity:1;fill-rule:nonZero;}
.st6{stroke:none;stroke-width:1;stroke-linecap:butt;stroke-linejoin:miter;fill:#2f2e41;fill-opacity:1;fill-rule:nonZero;}
.st7{stroke:none;stroke-width:1;stroke-linecap:butt;stroke-linejoin:miter;fill:#a8a8a8;fill-opacity:1;fill-rule:nonZero;}
.st8{stroke:none;stroke-width:1;stroke-linecap:butt;stroke-linejoin:miter;fill:#000000;fill-opacity:0.2;fill-rule:nonZero;}
.st9{stroke:none;stroke-width:1;stroke-linecap:butt;stroke-linejoin:miter;fill:#3f3d56;fill-opacity:1;fill-rule:nonZero;}
.st10{stroke:none;stroke-width:1;stroke-linecap:butt;stroke-linejoin:miter;fill:#000000;fill-opacity:0.1;fill-rule:nonZero;}
.st11{stroke:none;stroke-width:1;stroke-linecap:butt;stroke-linejoin:miter;fill:#3f3d56;fill-opacity:1;fill-rule:nonZero;}
.st12{stroke:none;stroke-width:1;stroke-linecap:butt;stroke-linejoin:miter;fill:#3f3d56;fill-opacity:1;fill-rule:nonZero;}
.st13{stroke:#2f2e41;stroke-opacity:1;stroke-width:2;stroke-linecap:butt;stroke-linejoin:miter;fill:none;}
.st14{stroke:#2f2e41;stroke-opacity:1;stroke-width:2;stroke-linecap:butt;stroke-linejoin:miter;fill:none;}
.st15{stroke:#2f2e41;stroke-opacity:1;stroke-width:2;stroke-linecap:butt;stroke-linejoin:miter;fill:none;}
.st16{stroke:none;stroke-width:1;stroke-linecap:butt;stroke-linejoin:miter;fill:#2f2e41;fill-opacity:1;fill-rule:nonZero;}
.st17{stroke:none;stroke-width:1;stroke-linecap:butt;stroke-linejoin:miter;fill:#000000;fill-opacity:0.1;fill-rule:nonZero;}
.st18{stroke:none;stroke-width:1;stroke-linecap:butt;stroke-linejoin:miter;fill:#2f2e41;fill-opacity:1;fill-rule:nonZero;}
.st19{stroke:none;stroke-width:1;stroke-linecap:butt;stroke-linejoin:miter;fill:#3f3d56;fill-opacity:1;fill-rule:nonZero;}
.st20{stroke:none;stroke-width:1;stroke-linecap:butt;stroke-linejoin:miter;fill:#f2f2f2;fill-opacity:1;fill-rule:nonZero;}
.st21{stroke:none;stroke-width:1;stroke-linecap:butt;stroke-linejoin:miter;fill:#2f2e41;fill-opacity:1;fill-rule:nonZero;}
.st22{stroke:none;stroke-width:1;stroke-linecap:butt;stroke-linejoin:miter;fill:#2f2e41;fill-opacity:1;fill-rule:nonZero;}
.st23{stroke:none;stroke-width:1;stroke-linecap:butt;stroke-linejoin:miter;fill:#2f2e41;fill-opacity:1;fill-rule:nonZero;}
.st24{stroke:none;stroke-width:1;stroke-linecap:butt;stroke-linejoin:miter;fill:#000000;fill-opacity:0.1;fill-rule:nonZero;}
.st25{stroke:none;stroke-width:1;stroke-linecap:butt;stroke-linejoin:miter;fill:#f2f2f2;fill-opacity:1;fill-rule:nonZero;}
.st26{stroke:none;stroke-width:1;stroke-linecap:butt;stroke-linejoin:miter;fill:#f2f2f2;fill-opacity:1;fill-rule:nonZero;}
.st27{stroke:none;stroke-width:1;stroke-linecap:butt;stroke-linejoin:miter;fill:#000000;fill-opacity:0.1;fill-rule:nonZero;}
.st28{stroke:none;stroke-width:1;stroke-linecap:butt;stroke-linejoin:miter;fill:#2f2e41;fill-opacity:1;fill-rule:nonZero;}
.st29{stroke:none;stroke-width:1;stroke-linecap:butt;stroke-linejoin:miter;fill:#3f3d56;fill-opacity:1;fill-rule:nonZero;}
.st30{stroke:none;stroke-width:1;stroke-linecap:butt;stroke-linejoin:miter;fill:#3f3d56;fill-opacity:1;fill-rule:nonZero;}
.st31{stroke:none;stroke-width:1;stroke-linecap:butt;stroke-linejoin:miter;fill:#3f3d56;fill-opacity:1;fill-rule:nonZero;}
.st32{stroke:none;stroke-width:1;stroke-linecap:butt;stroke-linejoin:miter;fill:#42b983;fill-opacity:0.4;fill-rule:nonZero;}
.st33{stroke:none;stroke-width:1;stroke-linecap:butt;stroke-linejoin:miter;fill:#42b983;fill-opacity:0.8;fill-rule:nonZero;}
.st34{stroke:none;stroke-width:1;stroke-linecap:butt;stroke-linejoin:miter;fill:#42b983;fill-opacity:1;fill-rule:nonZero;}
.st35{stroke:none;stroke-width:1;stroke-linecap:butt;stroke-linejoin:miter;fill:#42b983;fill-opacity:0.4;fill-rule:nonZero;}
.st36{stroke:none;stroke-width:1;stroke-linecap:butt;stroke-linejoin:miter;fill:#42b983;fill-opacity:0.8;fill-rule:nonZero;}
.st37{stroke:none;stroke-width:1;stroke-linecap:butt;stroke-linejoin:miter;fill:#42b983;fill-opacity:1;fill-rule:nonZero;}
.st38{stroke:none;stroke-width:1;stroke-linecap:butt;stroke-linejoin:miter;fill:#42b983;fill-opacity:0.4;fill-rule:nonZero;}
.st39{stroke:none;stroke-width:1;stroke-linecap:butt;stroke-linejoin:miter;fill:#42b983;fill-opacity:0.8;fill-rule:nonZero;}
.st40{stroke:none;stroke-width:1;stroke-linecap:butt;stroke-linejoin:miter;fill:#42b983;fill-opacity:1;fill-rule:nonZero;}
.st41{stroke:none;stroke-width:1;stroke-linecap:butt;stroke-linejoin:miter;fill:#2f2e41;fill-opacity:1;fill-rule:nonZero;}
.st42{stroke:none;stroke-width:1;stroke-linecap:butt;stroke-linejoin:miter;fill:#2f2e41;fill-opacity:1;fill-rule:nonZero;}
.st43{stroke:none;stroke-width:1;stroke-linecap:butt;stroke-linejoin:miter;fill:#2f2e41;fill-opacity:1;fill-rule:nonZero;}
.st44{stroke:none;stroke-width:1;stroke-linecap:butt;stroke-linejoin:miter;fill:#2f2e41;fill-opacity:1;fill-rule:nonZero;}
.st45{stroke:none;stroke-width:1;stroke-linecap:butt;stroke-linejoin:miter;fill:#2f2e41;fill-opacity:1;fill-rule:nonZero;}
.st46{stroke:none;stroke-width:1;stroke-linecap:butt;stroke-linejoin:miter;fill:#ffffff;fill-opacity:1;fill-rule:nonZero;}
.st47{stroke:none;stroke-width:1;stroke-linecap:butt;stroke-linejoin:miter;fill:#3f3d56;fill-opacity:1;fill-rule:nonZero;}
.st48{stroke:none;stroke-width:1;stroke-linecap:butt;stroke-linejoin:miter;fill:#42b983;fill-opacity:1;fill-rule:nonZero;}
.st49{stroke:none;stroke-width:1;stroke-linecap:butt;stroke-linejoin:miter;fill:#2f2e41;fill-opacity:1;fill-rule:nonZero;}
.st50{stroke:none;stroke-width:1;stroke-linecap:butt;stroke-linejoin:miter;fill:#2f2e41;fill-opacity:1;fill-rule:nonZero;}
.st51{stroke:none;stroke-width:1;stroke-linecap:butt;stroke-linejoin:miter;fill:#db380e;fill-opacity:1;fill-rule:nonZero;}
.st52{stroke:none;stroke-width:1;stroke-linecap:butt;stroke-linejoin:miter;fill:#db380e;fill-opacity:1;fill-rule:nonZero;}
.st53{stroke:none;stroke-width:1;stroke-linecap:butt;stroke-linejoin:miter;fill:#40be73;fill-opacity:1;fill-rule:nonzero;}
.st54{stroke:none;stroke-width:1;stroke-linecap:butt;stroke-linejoin:miter;fill:#40be73;fill-opacity:1;fill-rule:nonZero;}
.st55{stroke:none;stroke-width:1;stroke-linecap:butt;stroke-linejoin:miter;fill:#40be73;fill-opacity:1;fill-rule:nonZero;}
.st56{stroke:none;stroke-width:1;stroke-linecap:butt;stroke-linejoin:miter;fill:#ffffff;fill-opacity:1;fill-rule:nonZero;}</style>
  <defs/>
  <path class="st2" id="圆13" d="M 292.60911 0 C 410.24474999999995 0 505.60911 95.36436 505.60911 213 C 505.60911 330.63563999999997 410.24474999999995 426 292.60911 426 C 174.97347 426 79.60910999999999 330.63563999999997 79.60910999999999 213 C 79.60910999999999 95.36436 174.97347 0 292.60911 0  Z "/>
  <path class="st3" id="路径93" d="M 0.04088999999999743 51.14237 C 0.04088999999999743 128.64026 48.658989999999996 191.35055999999997 108.74161999999998 191.35055999999997 "/>
  <path class="st4" id="路径94" d="M 108.74162000000001 191.35055999999997 C 108.74162000000001 112.98190999999997 162.99662 49.56699999999998 230.04534000000004 49.56699999999998 "/>
  <path class="st5" id="路径95" d="M 39.42521 58.16767999999999 C 39.42521 131.78244 70.42805999999999 191.35055999999997 108.74162000000001 191.35055999999997 "/>
  <path class="st6" id="路径96" d="M 108.74162000000001 191.35055999999997 C 108.74162000000001 91.21283999999997 171.45192 10.182679999999976 248.94980999999999 10.182679999999976 "/>
  <path class="st7" id="路径97" d="M 85.87378999999999 192.33905 C 85.87378999999999 192.33905 101.28934000000001 191.86426 105.93520000000001 188.55604999999997 C 110.58106000000001 185.24783999999994 129.6482 181.29754999999994 130.80073000000002 186.60326999999995 C 131.95326000000003 191.90898999999996 153.96744 212.99147999999997 136.56336000000002 213.13186999999994 C 119.15928000000002 213.2722599999999 96.12401000000003 210.42086999999992 91.48709000000002 207.59637999999995 C 86.85017000000002 204.77188999999998 85.87378999999999 192.33905 85.87378999999999 192.33905  Z "/>
  <path class="st8" id="路径98" d="M 136.874 211.28489000000002 C 119.46992 211.42531000000002 96.43466999999998 208.57395000000002 91.79774 205.74941 C 88.26648 203.59841 86.85931 195.87995999999998 86.38847999999999 192.31898 C 86.06241 192.33298000000002 85.87385 192.33898 85.87385 192.33898 C 85.87385 192.33898 86.85023000000001 204.77173999999997 91.48715999999999 207.59627999999998 C 96.12409 210.42082 119.15933000000001 213.27216999999996 136.56342 213.13174999999995 C 141.58728000000002 213.09122999999994 143.32262 211.30381999999997 143.22733 208.65648999999996 C 142.52935 210.25599999999997 140.61329 211.25474000000003 136.874 211.28489000000002  Z "/>
  <path class="st9" id="椭圆14" d="M 198.60911 399.06007 C 301.88547 399.06007 385.60911 410.4500354596 385.60911 424.5 C 385.60911 438.5499645404 301.88547 449.93993 198.60911 449.93993 C 95.33274999999999 449.93993 11.609109999999987 438.5499645404 11.609109999999987 424.5 C 11.609109999999987 410.4500354596 95.33274999999999 399.06007 198.60911 399.06007  Z "/>
  <path class="st10" id="椭圆15" d="M 198.60911 403.14134 C 285.31707 403.14134 355.60911 412.7040392552 355.60911 424.5 C 355.60911 436.2959607448 285.31707 445.85866 198.60911 445.85866 C 111.90114999999999 445.85866 41.60910999999999 436.2959607448 41.60910999999999 424.5 C 41.60910999999999 412.7040392552 111.90114999999999 403.14134 198.60911 403.14134  Z "/>
  <path class="st11" id="椭圆16" d="M 836.60911 622 C 992.90435 622 1119.6091099999999 639.23722 1119.6091099999999 660.5 C 1119.6091099999999 681.76278 992.90435 699 836.60911 699 C 680.31387 699 553.60911 681.76278 553.60911 660.5 C 553.60911 639.23722 680.31387 622 836.60911 622  Z "/>
  <path class="st12" id="椭圆17" d="M 310.60911 622.37279 C 404.49671 622.37279 480.60911 632.7273044612 480.60911 645.5 C 480.60911 658.2726955388 404.49671 668.62721 310.60911 668.62721 C 216.72151 668.62721 140.60911 658.2726955388 140.60911 645.5 C 140.60911 632.7273044612 216.72151 622.37279 310.60911 622.37279  Z "/>
  <path class="st13" id="路径99" d="M 462.65 626 C 552.65 649 725.65 596 744.65 536 "/>
  <path class="st14" id="路径100" d="M 309.65 259 C 309.65 259 439.65 223 447.65 339 C 455.65 455 340.65 488 430.65 511 "/>
  <path class="st15" id="路径101" d="M 184.05233 537.28332 C 184.05233 537.28332 223.12463 526.46332 225.52908 561.32781 C 227.93353 596.1923 193.36956999999998 606.11068 220.41961999999998 613.02347 "/>
  <path class="st16" id="路径102" d="M 778.74554 563.23988 C 778.74554 563.23988 770.8679999999999 613.53505 770.8679999999999 613.53505 C 770.8679999999999 613.53505 732.0861799999999 634.13789 759.35465 634.7438599999999 C 786.6231200000001 635.3498299999999 915.08789 634.7438599999999 915.08789 634.7438599999999 C 915.08789 634.7438599999999 939.9325 634.7438599999999 900.54471 612.9290799999999 C 900.54471 612.9290799999999 892.66715 560.2100799999998 892.66715 560.2100799999998 C 892.66715 560.2100799999998 778.74554 563.23988 778.74554 563.23988  Z "/>
  <path class="st17" id="路径103" d="M 753.86906 634.19812 C 760.06206 628.68773 770.86796 622.9461200000001 770.86796 622.9461200000001 C 770.86796 622.9461200000001 778.74552 572.65092 778.74552 572.65092 C 778.74552 572.65092 892.6671200000001 572.75809 892.6671200000001 572.75809 C 892.6671200000001 572.75809 900.5446800000001 622.34009 900.5446800000001 622.34009 C 909.72968 627.4272000000001 915.4195800000001 631.32709 918.7483000000001 634.31827 C 923.80712 633.16405 929.3354600000001 628.87474 900.5446800000001 612.9290599999999 C 900.5446800000001 612.9290599999999 892.6671200000001 560.2100599999999 892.6671200000001 560.2100599999999 C 892.6671200000001 560.2100599999999 778.74552 563.2398899999998 778.74552 563.2398899999998 C 778.74552 563.2398899999998 770.8679999999999 613.53506 770.8679999999999 613.53506 C 770.8679999999999 613.53506 738.27985 630.84968 753.86906 634.19812  Z "/>
  <path class="st18" id="矩形26" d="M 596.4785899999999 212.68859 C 596.4785899999999 212.68859 1073.64037 212.68859 1073.64037 212.68859 C 1083.6066381504002 212.68859 1091.68605 220.7680018496 1091.68605 230.73427 C 1091.68605 230.73427 1091.68605 552.1628000000001 1091.68605 552.1628000000001 C 1091.68605 562.1290681504 1083.6066381504002 570.20848 1073.64037 570.20848 C 1073.64037 570.20848 596.4785899999999 570.20848 596.4785899999999 570.20848 C 586.5123218496 570.20848 578.43291 562.1290681504 578.43291 552.1628000000001 C 578.43291 552.1628000000001 578.43291 230.73427 578.43291 230.73427 C 578.43291 220.7680018496 586.5123218496 212.68859 596.4785899999999 212.68859  Z "/>
  <path class="st19" id="矩形27" d="M 595.7029400000002 231.77651999999998 C 595.7029400000002 231.77651999999998 1074.4160200000003 231.77651999999998 1074.4160200000003 231.77651999999998 C 1074.4160200000003 231.77651999999998 1074.4160200000003 499.61346000000026 1074.4160200000003 499.61346000000026 C 1074.4160200000003 499.61346000000026 595.7029400000002 499.61346000000026 595.7029400000002 499.61346000000026 C 595.7029400000002 499.61346000000026 595.7029400000002 231.77651999999998 595.7029400000002 231.77651999999998  Z "/>
  <path class="st20" id="圆14" d="M 835.05948 220.26316 C 836.7327945124 220.26316 838.08931 221.6196754876 838.08931 223.29299 C 838.08931 224.9663045124 836.7327945124 226.32282 835.05948 226.32282 C 833.3861654876 226.32282 832.0296500000001 224.9663045124 832.0296500000001 223.29299 C 832.0296500000001 221.6196754876 833.3861654876 220.26316 835.05948 220.26316  Z "/>
  <path class="st21" id="路径104" d="M 1091.72694 520.82226 C 1091.72694 520.82226 1091.72694 552.1628 1091.72694 552.1628 C 1091.7273455899824 555.3864854353108 1090.9216855623483 558.394258702344 1089.3099599170978 561.1861198010998 C 1087.6982342718472 563.9779808998558 1085.4964408998435 566.1797742718577 1082.704579801086 567.7914999171056 C 1079.912718702329 569.4032255623537 1076.9049454352976 570.2088855899851 1073.681259999992 570.2084799999999 C 1073.681259999992 570.2084799999999 596.51949 570.2084799999999 596.51949 570.2084799999999 C 593.2958033738576 570.2088873767618 590.2880286979196 569.4032284605095 587.4961659721861 567.7915032512428 C 584.7043032464526 566.1797780419761 582.5025085053984 563.9779845210442 580.8907817490237 561.1861226884472 C 579.2790549926491 558.3942608558502 578.4733944096412 555.3864866263677 578.4738000000001 552.1628 C 578.4738000000001 552.1628 578.4738000000001 520.82226 578.4738000000001 520.82226 C 578.4738000000001 520.82226 1091.72694 520.82226 1091.72694 520.82226  Z "/>
  <path class="st22" id="多边形47" d="M 968.978 667.466 C 968.978 667.466 968.978 673.526 968.978 673.526 C 968.978 673.526 642.968 673.526 642.968 673.526 C 642.968 673.526 642.968 668.678 642.968 668.678 C 642.968 668.678 643.417 667.466 643.417 667.466 C 643.417 667.466 651.452 645.651 651.452 645.651 C 651.452 645.651 962.312 645.651 962.312 645.651 C 962.312 645.651 968.978 667.466 968.978 667.466 C 968.978 667.466 968.978 667.466 968.978 667.466  Z "/>
  <path class="st23" id="路径105" d="M 1094.478 661.53359 C 1093.88417 664.07259 1091.64209 666.75102 1086.5762200000001 669.28391 C 1068.39722 678.3734 1031.43332 666.86005 1031.43332 666.86005 C 1031.43332 666.86005 1002.9529200000001 662.01232 1002.9529200000001 649.28705 C 1003.7534220160436 648.738892552521 1004.585615349377 648.2440292191876 1005.4495000000001 647.80246 C 1013.09244 643.75895 1038.4339900000002 633.78124 1083.3672000000001 648.22494 C 1086.742556702317 649.2844328787229 1089.589576702317 651.1501495453896 1091.9082600000002 653.82209 C 1093.72908 655.95353 1095.15669 658.65715 1094.478 661.53359  Z "/>
  <path class="st24" id="路径106" d="M 1094.478 661.53359 C 1072.227 670.05959 1052.3937 670.69579 1032.0392900000002 656.55859 C 1021.7742200000001 649.43242 1012.4484000000001 647.66904 1005.4495000000001 647.80241 C 1013.09244 643.7589 1038.4339900000002 633.78119 1083.3672000000001 648.22489 C 1086.742556702317 649.2843828787229 1089.589576702317 651.1500995453896 1091.9082600000002 653.82204 C 1093.72908 655.95353 1095.15669 658.65715 1094.478 661.53359  Z "/>
  <path class="st25" id="椭圆18" d="M 1066.53846 651.71091 C 1070.8890788368 651.71091 1074.41602 652.7961205992 1074.41602 654.13477 C 1074.41602 655.4734194008 1070.8890788368 656.55863 1066.53846 656.55863 C 1062.1878411632 656.55863 1058.6609 655.4734194008 1058.6609 654.13477 C 1058.6609 652.7961205992 1062.1878411632 651.71091 1066.53846 651.71091  Z "/>
  <path class="st26" id="圆15" d="M 835.05948 534.1535100000001 C 841.418072938 534.1535100000001 846.57283 539.308267062 846.57283 545.66686 C 846.57283 552.0254529380001 841.418072938 557.18021 835.05948 557.18021 C 828.700887062 557.18021 823.5461300000001 552.0254529380001 823.5461300000001 545.66686 C 823.5461300000001 539.308267062 828.700887062 534.1535100000001 835.05948 534.1535100000001  Z "/>
  <path class="st27" id="多边形48" d="M 968.978 667.466 C 968.978 667.466 968.978 673.526 968.978 673.526 C 968.978 673.526 642.968 673.526 642.968 673.526 C 642.968 673.526 642.968 668.678 642.968 668.678 C 642.968 668.678 643.417 667.466 643.417 667.466 C 643.417 667.466 968.978 667.466 968.978 667.466 C 968.978 667.466 968.978 667.466 968.978 667.466  Z "/>
  <path class="st28" id="矩形28" d="M 108.60911 159 C 108.60911 159 316.60911 159 316.60911 159 C 316.60911 159 316.60911 401 316.60911 401 C 316.60911 401 108.60911 401 108.60911 401 C 108.60911 401 108.60911 159 108.60911 159  Z "/>
  <path class="st29" id="矩形29" d="M 87.60911 135 C 87.60911 135 337.60911 135 337.60911 135 C 337.60911 135 337.60911 221 337.60911 221 C 337.60911 221 87.60911 221 87.60911 221 C 87.60911 221 87.60911 135 87.60911 135  Z "/>
  <path class="st30" id="矩形30" d="M 87.60911 237 C 87.60911 237 337.60911 237 337.60911 237 C 337.60911 237 337.60911 323 337.60911 323 C 337.60911 323 87.60911 323 87.60911 323 C 87.60911 323 87.60911 237 87.60911 237  Z "/>
  <path class="st31" id="矩形31" d="M 87.60911 339 C 87.60911 339 337.60911 339 337.60911 339 C 337.60911 339 337.60911 425 337.60911 425 C 337.60911 425 87.60911 425 87.60911 425 C 87.60911 425 87.60911 339 87.60911 339  Z "/>
  <path class="st32" id="矩形32" d="M 271.60911 150 C 271.60911 150 287.60911 150 287.60911 150 C 287.60911 150 287.60911 166 287.60911 166 C 287.60911 166 271.60911 166 271.60911 166 C 271.60911 166 271.60911 150 271.60911 150  Z "/>
  <path class="st33" id="矩形33" d="M 294.60911 150 C 294.60911 150 310.60911 150 310.60911 150 C 310.60911 150 310.60911 166 310.60911 166 C 310.60911 166 294.60911 166 294.60911 166 C 294.60911 166 294.60911 150 294.60911 150  Z "/>
  <path class="st34" id="矩形34" d="M 317.60911 150 C 317.60911 150 333.60911 150 333.60911 150 C 333.60911 150 333.60911 166 333.60911 166 C 333.60911 166 317.60911 166 317.60911 166 C 317.60911 166 317.60911 150 317.60911 150  Z "/>
  <path class="st35" id="矩形35" d="M 271.60911 251 C 271.60911 251 287.60911 251 287.60911 251 C 287.60911 251 287.60911 267 287.60911 267 C 287.60911 267 271.60911 267 271.60911 267 C 271.60911 267 271.60911 251 271.60911 251  Z "/>
  <path class="st36" id="矩形36" d="M 294.60911 251 C 294.60911 251 310.60911 251 310.60911 251 C 310.60911 251 310.60911 267 310.60911 267 C 310.60911 267 294.60911 267 294.60911 267 C 294.60911 267 294.60911 251 294.60911 251  Z "/>
  <path class="st37" id="矩形37" d="M 317.60911 251 C 317.60911 251 333.60911 251 333.60911 251 C 333.60911 251 333.60911 267 333.60911 267 C 333.60911 267 317.60911 267 317.60911 267 C 317.60911 267 317.60911 251 317.60911 251  Z "/>
  <path class="st38" id="矩形38" d="M 271.60911 352 C 271.60911 352 287.60911 352 287.60911 352 C 287.60911 352 287.60911 368 287.60911 368 C 287.60911 368 271.60911 368 271.60911 368 C 271.60911 368 271.60911 352 271.60911 352  Z "/>
  <path class="st39" id="矩形39" d="M 294.60911 352 C 294.60911 352 310.60911 352 310.60911 352 C 310.60911 352 310.60911 368 310.60911 368 C 310.60911 368 294.60911 368 294.60911 368 C 294.60911 368 294.60911 352 294.60911 352  Z "/>
  <path class="st40" id="矩形40" d="M 317.60911 352 C 317.60911 352 333.60911 352 333.60911 352 C 333.60911 352 333.60911 368 333.60911 368 C 333.60911 368 317.60911 368 317.60911 368 C 317.60911 368 317.60911 352 317.60911 352  Z "/>
  <path class="st41" id="圆16" d="M 316.60911 459 C 360.23922999999996 459 395.60911 494.36988 395.60911 538 C 395.60911 581.63012 360.23922999999996 617 316.60911 617 C 272.97899 617 237.60911 581.63012 237.60911 538 C 237.60911 494.36988 272.97899 459 316.60911 459  Z "/>
  <path class="st42" id="矩形41" d="M 280.60911 600 C 280.60911 600 304.60911 600 304.60911 600 C 304.60911 600 304.60911 643 304.60911 643 C 304.60911 643 280.60911 643 280.60911 643 C 280.60911 643 280.60911 600 280.60911 600  Z "/>
  <path class="st43" id="矩形42" d="M 328.60911 600 C 328.60911 600 352.60911 600 352.60911 600 C 352.60911 600 352.60911 643 352.60911 643 C 352.60911 643 328.60911 643 328.60911 643 C 328.60911 643 328.60911 600 328.60911 600  Z "/>
  <path class="st44" id="椭圆19" d="M 300.60911 636 C 311.65470999999997 636 320.60911 639.3579 320.60911 643.5 C 320.60911 647.6421 311.65470999999997 651 300.60911 651 C 289.56351 651 280.60911 647.6421 280.60911 643.5 C 280.60911 639.3579 289.56351 636 300.60911 636  Z "/>
  <path class="st45" id="椭圆20" d="M 348.60911 635 C 359.65470999999997 635 368.60911 638.3579 368.60911 642.5 C 368.60911 646.6421 359.65470999999997 650 348.60911 650 C 337.56351 650 328.60911 646.6421 328.60911 642.5 C 328.60911 638.3579 337.56351 635 348.60911 635  Z "/>
  <path class="st46" id="圆17" d="M 318.60911 491 C 333.52067 491 345.60911 503.08844 345.60911 518 C 345.60911 532.91156 333.52067 545 318.60911 545 C 303.69755 545 291.60911 532.91156 291.60911 518 C 291.60911 503.08844 303.69755 491 318.60911 491  Z "/>
  <path class="st47" id="圆18" d="M 318.60911 509 C 323.57963 509 327.60911 513.02948 327.60911 518 C 327.60911 522.97052 323.57963 527 318.60911 527 C 313.63858999999997 527 309.60911 522.97052 309.60911 518 C 309.60911 513.02948 313.63858999999997 509 318.60911 509  Z "/>
  <path class="st48" id="路径107" d="M 240.01733 464.53228 C 233.63843999999997 435.9647 254.02917999999997 407.09836 285.56132999999994 400.05751 C 317.09347999999994 393.01665999999994 347.82642999999996 410.46751 354.20532999999995 439.03511000000003 C 360.58422999999993 467.6027100000001 339.6867199999999 478.13890000000004 308.15457999999995 485.17975 C 276.62244 492.2206 246.39622 493.09986000000004 240.01733 464.53228  Z "/>
  <path class="st49" id="椭圆21" d="M 380.9815955919182 499.41325738255716 C 401.0369114373136 490.82948506469285 419.47980658285724 488.97482981677956 422.1745178324786 495.27081289065745 C 424.8692290820999 501.56679596453546 410.79540803187194 513.6294527400676 390.74009218647655 522.2132250579318 C 370.68477634108126 530.7969973757962 352.24188119553753 532.6516526237094 349.54716994591627 526.3556695498314 C 346.8524586962949 520.0596864759535 360.9262797465228 507.9970297004215 380.9815955919182 499.41325738255716  Z "/>
  <path class="st50" id="椭圆22" d="M 232.9746324998295 552.4228551489566 C 253.0299483452249 543.8390828310922 271.4728434907685 541.984427583179 274.1675547403899 548.2804106570568 C 276.8622659900113 554.5763937309348 262.7884449397831 566.6390505064669 242.73312909438783 575.2228228243313 C 222.67781324899255 583.8065951421955 204.23491810344888 585.6612503901089 201.5402068538275 579.3652673162309 C 198.84549560420618 573.069284242353 212.91931665443423 561.0066274668209 232.9746324998295 552.4228551489566  Z "/>
  <g id="图层5">
    <g id="图层4">
      <path class="st51" id="路径109" d="M 835.6304946468256 269.75012890061026 C 830.1693708128042 273.9715344611216 823.9799585602732 278.75616624802615 820.6635341893 286.672031045355 C 814.9032465023413 300.4824891252524 832.4504945422152 315.5467597569286 833.200481456849 316.1812771071832 C 833.3804634831183 316.3336468960794 833.5840231938656 316.40726553378477 833.8111605890908 316.40213302029906 C 834.0382979843165 316.3970005068133 834.238932566156 316.314248486842 834.4130643346102 316.15387696038516 C 834.5871974653442 315.993608392579 834.6965480566794 315.79108666503726 834.7411161086166 315.54631177776014 C 834.7856841605541 315.3015368904831 834.7556642651996 315.06836171581944 834.6510564225537 314.8467862537702 C 834.587576476355 314.71232237542756 828.2889786424921 301.2659316234842 828.5230466608009 291.6195417011439 C 828.6059169219174 288.2597199579952 832.8840049752538 284.4483025168448 837.4130121085666 280.41311672389674 C 841.5611394492673 276.71713522146405 846.2632737925187 272.5282038996127 849.0143801727606 267.62788246305496 C 855.0539797153293 256.8413400779575 848.3412616479259 246.23492852481812 848.2727033106482 246.12887963701715 C 848.1394942335153 245.92321107918193 847.9621770732297 245.78680140645886 847.740751829791 245.7196506188474 C 847.5193265863529 245.65249983123576 847.3034526539598 245.66966794348812 847.093130032611 245.7711549556046 C 846.8829036033572 245.8729627708881 846.725487467465 246.03626415237355 846.6208816249375 246.2610591000611 C 846.5162757824096 246.48585404774812 846.4879456969694 246.72171595483317 846.5358913686182 246.96864482131625 C 846.5495106534236 247.03892122829066 847.8548896178354 254.05286305743937 844.222450563097 261.2791563731256 C 842.7261700776808 264.26526989961195 839.4381385977629 266.8068915074451 835.6304946468251 269.75012890061026 C 835.6304946468251 269.75012890061026 835.6304946468256 269.75012890061026 835.6304946468256 269.75012890061026  Z "/>
      <path class="st52" id="路径110" d="M 858.6386356795144 274.50659928105307 C 858.8310371461157 274.3470410105455 858.9523660410152 274.1377199189875 859.0026223642144 273.87863600637894 C 859.0528786874132 273.6195520937704 859.0197759658471 273.3740452009718 858.9033141995164 273.1421153279831 C 858.7868524331853 272.91018545499486 858.6155037478629 272.74853392725834 858.3892681435491 272.6571607447756 C 858.163032539235 272.56578756229237 857.9372192284154 272.56703129012055 857.7118282110903 272.66089192825956 C 856.7840973778483 273.04855386582926 834.9938483397824 282.2801354147382 834.9938482243622 293.43429708089235 C 834.9938482243622 301.1233492489047 837.9822542843542 305.1851740558429 840.164349330013 308.15149850989627 C 841.0202901645349 309.3149918713324 841.7591969321921 310.31966561200306 842.0027292090444 311.1774438921833 C 842.6883128126616 313.64929638805813 841.0641490700302 318.1170500662391 840.3811046042424 319.630149485995 C 840.2824566452637 319.8478776198727 840.2549352772411 320.075972402216 840.2985405001732 320.3144338330248 C 840.3421457231047 320.55289526383336 840.4477106465096 320.75159288456183 840.6152352703864 320.9105266952094 C 840.7827598942631 321.06946050585697 840.9770264218217 321.1552187098944 841.198034853061 321.1678013073221 C 841.4190432843004 321.18038390474993 841.6203322105017 321.11714572407556 841.8019016316655 320.97808676529917 C 842.1765488271758 320.6919069186848 850.958483015055 313.8677368102021 849.3834872947828 305.645903093826 C 848.7967015337125 302.52075889215126 847.3994497320482 300.237409562263 846.1665534053916 298.2224806940435 C 844.2566143688443 295.1006347345354 842.8771368782468 292.84570039518866 844.9698982244815 288.6808711048246 C 847.421840867206 283.82291850657094 858.5262184367411 274.59894815888276 858.6386356795144 274.50659928105307 C 858.6386356795144 274.50659928105307 858.6386356795144 274.50659928105307 858.6386356795144 274.50659928105307  Z "/>
      <path class="st53" id="复合路径6" d="M 801.9177843543014 321.3454522085645 C 801.5442913648138 322.5746553069843 801.720650236195 323.7939638057603 802.427239927742 324.87271961744335 C 804.7893871886336 328.4771135017094 813.1565086193577 330.4615976919003 825.9882338723789 330.46159781875554 C 825.9882338723789 330.46159781875554 825.9898496453904 330.46159781875554 825.9898496453904 330.46159781875554 C 827.7285082016358 330.46159781875554 829.564118101634 330.4240493613774 831.444279315321 330.3499672903651 C 851.959850576654 329.54293018251764 859.5691366072116 322.5183326209171 859.8830739509772 322.21972131901083 C 860.0535645227812 322.0569244876197 860.1593285224408 321.8534807216519 860.2003659499571 321.6093900211076 C 860.2414033774734 321.3652993205632 860.2087721224677 321.1337493757736 860.1024721849387 320.91474018673887 C 859.9961722474097 320.6957309977042 859.8393665260143 320.53698495982957 859.6320550207524 320.438502073115 C 859.4247435154898 320.3400191864005 859.2120996808159 320.3232590036676 858.9941235167314 320.3882215249159 C 851.7687182144446 322.5563886270226 838.2770321544064 323.32613098842774 828.9189307854444 323.32613098842774 C 818.447506179099 323.32613098842774 813.1147272847027 322.49702140972516 811.8091174790866 321.8848301144058 C 812.4790042270579 320.8738137271939 816.6109730297036 319.06844552521767 821.7311517915521 317.9615285607846 C 821.975498552729 317.90833096606383 822.1719570670737 317.77185939373356 822.320527334585 317.5521138437944 C 822.4690976020967 317.3323682938546 822.5313057691845 317.0862542175599 822.5071518358484 316.81377161491014 C 822.4829979025113 316.54128901226005 822.3787367871166 316.3130001561521 822.194368489663 316.12890504658634 C 822.0100001922093 315.94480993702047 821.7932688475232 315.8525819639079 821.544174455604 315.85222112724813 C 818.5428416344199 315.85222112724813 803.491164186142 316.11708963581503 801.9177843543014 321.3454522085645 C 801.9177843543014 321.3454522085645 801.9177843543014 321.3454522085645 801.9177843543014 321.3454522085645  Z M 870.5670986898704 314.11027926383275 C 866.335639521064 314.11027926383275 862.323013081907 316.441325234824 862.1540408982296 316.5400166323398 C 861.9585685767369 316.65543209537924 861.8159707779099 316.82466529484134 861.7262475017483 317.0477162307265 C 861.6365242255858 317.27076716661173 861.6186032384562 317.50058164982835 861.6724845403594 317.73715968037726 C 861.7263658422615 317.973737710926 861.8406827874651 318.1671714624166 862.0154353759701 318.3174609348497 C 862.1901879644755 318.46775040728255 862.3885108887634 318.5431909623149 862.6104041488343 318.5437825999465 C 862.7001994152464 318.5437825999465 871.6365630217591 318.6242071906452 872.4458748563309 324.2359188687654 C 873.1628522866612 329.07712692581697 863.9905740476255 336.9211931774122 860.3957611858609 339.53537446378664 C 860.1638682666451 339.5894761619576 859.9754281118496 339.7195939915519 859.8304407214728 339.92572795256916 C 859.6854533310965 340.13186191358665 859.6183447163838 340.36506726648025 859.629114877333 340.6253440112501 C 859.6398850382826 340.88562075601976 859.7259766926306 341.11116841388963 859.8873898403785 341.30198698485907 C 860.0488029881257 341.49280555582857 860.2472114629426 341.6035868082469 860.4826152648291 341.63433074211395 C 860.7180190667156 341.66507467598143 860.9345235836693 341.6084814081133 861.1321288156894 341.4645509385097 C 861.9852995557571 341.26386990131124 882.0011103433985 336.41606548678214 879.8848036559839 323.60774403819636 C 878.5937364999912 315.75809627286753 874.1048949283227 314.11027926383275 870.5670986898704 314.11027926383275  Z M 856.840421362127 337.9679819185957 C 856.8751784868092 337.7627855219527 856.8566768633241 337.56356382199266 856.7849164916711 337.3703168187155 C 856.713156120019 337.1770698154383 856.5995424744857 337.0205118665904 856.4440755550734 336.900642972172 C 856.4440755550734 336.900642972172 851.6447591422855 333.20593002441876 851.6447591422855 333.20593002441876 C 851.5276736048985 333.1161155415031 851.3988361194773 333.05750786228526 851.2582466860226 333.03010698676485 C 851.1176572525669 333.00270611124455 850.9783399764218 333.0090504370842 850.8402948575888 333.04913996428445 C 850.7902033549911 333.063093812047 845.7713618043607 334.5132743151142 838.4847848525001 335.4025121170667 C 835.5928683384311 335.75896837065557 832.3537741550879 335.94721782570616 829.1169882683689 335.9472176988508 C 821.8322580461448 335.9472176988508 817.0691830099448 335.00647771861327 816.3755200795893 334.316398941954 C 816.2836472423368 334.1225679731691 816.3127326570046 334.0345321812495 816.3291220362646 333.98556698546764 C 816.455158679264 333.60044203040155 817.1305855007231 333.14275739679346 817.5659425479776 332.96161159423656 C 817.8074904638116 332.8645990467265 817.9856288859906 332.689611366354 818.1003578145137 332.436648553119 C 818.2150867430379 332.18368573988386 818.2349932098898 331.9220094252118 818.1600772150714 331.6516196091026 C 818.0851612202529 331.38122979299334 817.9359348855047 331.17615964872294 817.7123982108258 331.03640917629144 C 817.4888615361479 330.8966587038598 817.2522192281665 330.86049181087225 817.0024712868831 330.927908497328 C 812.1881505420623 332.2048082368503 809.834082492488 333.990387366394 810.005363088211 336.2349198110805 C 810.3096052168073 340.21454405076906 818.696347688235 342.2571269035782 825.786482930182 342.7970121044359 C 826.8060866006772 342.8736311579517 827.9087913734942 342.91244804315363 829.0632034219193 342.9124481700089 C 829.0632034219193 342.9124481700089 829.0650501515559 342.9124481700089 829.0650501515559 342.9124481700089 C 840.8547804835043 342.9124481700089 855.9690145131635 338.84681782588797 856.1199814291494 338.8054637044715 C 856.3045326364745 338.7558887848582 856.4620692449756 338.65523809152063 856.5925912546525 338.5035116244596 C 856.7231132643301 338.35178515739824 856.8057233001545 338.17327525544346 856.840421362127 337.9679819185957 C 856.840421362127 337.9679819185957 856.840421362127 337.9679819185957 856.840421362127 337.9679819185957  Z M 820.6579941158122 346.5087234311823 C 820.8396704285258 346.37873693018213 820.9672028139809 346.20164909416036 821.0405912721774 345.97745992311894 C 821.1139797303732 345.75327075207696 821.1183317727308 345.52747424808626 821.053647399252 345.30007041114726 C 820.9250716184234 344.8451764709789 820.5379592287101 344.54631145813613 820.1030637484439 344.552654104678 C 819.4578764322542 344.5714283333667 813.789923264957 344.8525339612639 813.3931157754951 348.818711901917 C 813.2730808883923 350.0040238964167 813.5819398410794 351.0870926671543 814.3116131913971 352.0372195714536 C 816.3466655061259 354.6879344714632 821.8401065316779 356.2634455128917 831.1028725607387 356.8535645910662 C 832.1986522128411 356.9258706855276 833.3117446090205 356.9621505882262 834.4116792873826 356.96215046137075 C 846.1877903345263 356.96215046137075 854.1188620789624 352.90971270534914 854.4510354162037 352.7371930746119 C 854.6699728754255 352.6235052780449 854.8279289543476 352.44473215598856 854.92490365297 352.2008737084445 C 855.0218783515924 351.9570152609011 855.033970755155 351.70817417497307 854.9611808636582 351.4543504506615 C 854.8883909721606 351.2005267263497 854.7486589804878 351.0042791473895 854.5419848886388 350.8656077137802 C 854.5419848886388 350.8656077137802 848.4767625494701 346.7961717056208 848.4767625494701 346.7961717056208 C 848.2585436960239 346.6505332297118 848.0243987691213 346.60596564786675 847.7743277687634 346.6624689600858 C 847.7360089367558 346.6713485891309 843.8849678781515 347.5491696526796 838.0732037567886 348.4163349837771 C 836.9734999196311 348.58073611827643 835.5963308410785 348.6642052402057 833.9804771509687 348.6642052402057 C 828.1749456267081 348.6642052402057 821.7175325067465 347.6217294580769 820.4790959911807 346.9390079179921 C 820.4610907234897 346.8116478189992 820.4839435410562 346.6497836670026 820.6579941158122 346.5087234311823 C 820.6579941158122 346.5087234311823 820.6579941158122 346.5087234311823 820.6579941158122 346.5087234311823  Z "/>
      <path class="st54" id="路径115" d="M 828.9233166529095 369.1978586326468 C 855.8974552402268 369.1727417574161 870.3748120062186 363.9004880807474 873.1637755360587 360.58278146496696 C 874.1510621304429 359.4091399198063 874.2577084585236 358.2979098694634 874.173914948009 357.5720584851217 C 873.9666240477446 355.7859718068513 872.4862711437584 354.6925012683087 872.3184532815244 354.57376708742487 C 871.9135664653236 354.2875872408101 871.3701780427613 354.3624304446301 871.0543939693594 354.76277767528336 C 870.7393025349911 355.16312490593583 870.7319157318664 355.7481697653926 871.048161372257 356.1482632851096 C 871.2182876465369 356.38877605125333 871.3166239220964 356.7914066803294 870.8191718604496 357.3386494983275 C 869.7042328500544 358.4831149201389 858.4590451466911 361.9571041741811 839.7356864468481 363.0008485109893 C 837.1708648789421 363.1472365496079 834.4806993070695 363.22182604249184 831.7404422325999 363.22233333750813 C 814.9764215482894 363.22233333750813 802.7077059893747 360.6984711146208 801.0971615315491 359.227994244105 C 801.7178801417405 358.24767624585763 806.0576016424798 356.6815522553455 810.6727106983531 355.7956126955592 C 810.9370875671872 355.7506699449683 811.1482899876311 355.60957724614025 811.3063179596859 355.3723345990765 C 811.4643459317408 355.135091952012 811.5229141351856 354.871186117482 811.4820225700205 354.58061709548684 C 811.4411310048547 354.2900480734911 811.3127565329187 354.0579215580051 811.0968991542113 353.8842375490278 C 810.8810417755038 353.7105535400506 810.6409246508712 353.646182904734 810.3765477803133 353.6911256430785 C 810.2463561110533 353.71066100457523 809.8045355100718 353.73958341698864 809.2930023657902 353.7740873431362 C 801.6781762617444 354.2850501315803 792.8784677627996 355.4239341665133 792.4193345331614 359.73616633923945 C 792.2799094465607 361.0501069874121 792.6351664425728 362.243030183134 793.475641262653 363.281193006208 C 795.5321613477211 365.82078492655427 801.44318510946 369.19735121090423 828.9223934027523 369.19735121090423 C 828.9223934027523 369.19735121090423 828.9233166521499 369.19785863277605 828.9233166521499 369.19785863277605 C 828.9233166521499 369.19785863277605 828.9233166529095 369.1978586326468 828.9233166529095 369.1978586326468  Z "/>
      <path class="st55" id="路径116" d="M 878.4619290577195 361.51768622053527 C 878.2717194562014 361.4207784373115 878.0737624803681 361.39457761804715 877.8680581302187 361.43908376274186 C 877.6623537800685 361.48358990743645 877.4882027366959 361.5902999299969 877.3456050000968 361.7592138304225 C 877.3061319620668 361.80614933871703 873.250569982232 366.466972852875 861.0568761989011 369.20394756825243 C 856.3886748201926 370.23196220760195 847.6261309472316 370.75332701756236 835.0125460156676 370.75332701756236 C 822.3754157429236 370.75332701756236 810.3504633020652 370.2068454592271 810.2306592561672 370.2012638186377 C 809.7283595292257 370.1743710937114 809.2987732812431 370.57573316810755 809.2304457851703 371.1191703220679 C 809.1962446058333 371.3907466045448 809.2495287695739 371.63970463579176 809.3902982763932 371.8660444158108 C 809.5310677832123 372.09238419582897 809.7227778136717 372.2373462206662 809.9654283677717 372.30093049032126 C 810.090541645953 372.33340485583705 822.6925847481323 375.57829795528414 839.9231254652057 375.57829795528414 C 848.187293911702 375.57829795528414 856.22916701048 374.84077612160354 863.8257570056296 373.385013977947 C 877.9900997926728 370.65590404787093 878.9817723699431 362.93666103962136 879.0170902662921 362.6093809093814 C 879.0417718345766 362.3805865472164 879.002975741621 362.16563144481574 878.9007019874282 361.9645156021787 C 878.7984282332347 361.7633997595419 878.6521705899985 361.61445663232735 878.4619290577195 361.51768622053527 C 878.4619290577195 361.51768622053527 878.4619290577195 361.51768622053527 878.4619290577195 361.51768622053527  Z "/>
    </g>
  </g>
  <path class="st56" id="路径108" d="M 362.65 561 C 362.65 568.732 342.74138999999997 584 320.65 584 C 298.55861 584 277.65 569.732 277.65 562 C 277.65 554.268 298.55861 556 320.65 556 C 342.74138999999997 556 362.65 553.268 362.65 561  Z "/>
  <text transform="matrix(1.1045780587821452 0 0 1 670.6999999999999 391.1)" opacity="1" id="文本1" text-anchor="start" dominant-baseline="auto">
    <tspan x="9.45" y="76.85" font-family="Segoe Print" font-size="60" fill="#42b983" font-style="normal" font-weight="bold">J</tspan>
    <tspan x="45.05" y="76.85" font-family="Segoe Print" font-size="60" fill="#42b983" font-style="normal" font-weight="bold">a</tspan>
    <tspan x="80.15" y="76.85" font-family="Segoe Print" font-size="60" fill="#42b983" font-style="normal" font-weight="bold">v</tspan>
    <tspan x="112.75" y="76.85" font-family="Segoe Print" font-size="60" fill="#42b983" font-style="normal" font-weight="bold">a</tspan>
    <tspan x="147.85" y="76.85" font-family="Segoe Print" font-size="60" fill="#42b983" font-style="normal" font-weight="bold">P</tspan>
    <tspan x="190.1" y="76.85" font-family="Segoe Print" font-size="60" fill="#42b983" font-style="normal" font-weight="bold">a</tspan>
    <tspan x="225.2" y="76.85" font-family="Segoe Print" font-size="60" fill="#42b983" font-style="normal" font-weight="bold">r</tspan>
    <tspan x="255.6" y="76.85" font-family="Segoe Print" font-size="60" fill="#42b983" font-style="normal" font-weight="bold">k</tspan>
  </text>
</svg>